<svg xmlns="http://www.w3.org/2000/svg" width="2828" height="1360" viewBox="0 0 707 340">
  <metadata><?xpacket begin="﻿" id="W5M0MpCehiHzreSzNTczkc9d"?>
<x:xmpmeta xmlns:x="adobe:ns:meta/" x:xmptk="Adobe XMP Core 5.6-c145 79.163499, 2018/08/13-16:40:22        ">
   <rdf:RDF xmlns:rdf="http://www.w3.org/1999/02/22-rdf-syntax-ns#">
      <rdf:Description rdf:about=""
            xmlns:xmp="http://ns.adobe.com/xap/1.0/">
         <xmp:CreatorTool>Adobe Photoshop CC 2019 (Windows)</xmp:CreatorTool>
      </rdf:Description>
   </rdf:RDF>
</x:xmpmeta>
                                                                                                    
                                                                                                    
                                                                                                    
                                                                                                    
                                                                                                    
                                                                                                    
                                                                                                    
                                                                                                    
                                                                                                    
                                                                                                    
                                                                                                    
                                                                                                    
                                                                                                    
                                                                                                    
                                                                                                    
                                                                                                    
                                                                                                    
                                                                                                    
                                                                                                    
                                                                                                    
                           
<?xpacket end="w"?></metadata>
<defs>
    <style>
      .cls-1 {
        fill: #7ade20;
      }

      .cls-2 {
        fill: #393e46;
      }

      .cls-3 {
        fill: #f6f6f6;
        fill-rule: evenodd;
      }
    </style>
  </defs>
  <rect class="cls-1" width="37" height="340"/>
  <rect id="Rounded_Rectangle_1" data-name="Rounded Rectangle 1" class="cls-2" x="37" width="670" height="340"/>
  <path id="nu" class="cls-3" d="M154.389,109.611c16.111-15.556,35-23.334,57.778-23.334s42.778,8.333,58.889,24.445S295.5,146.833,295.5,169.611V308.5h55.555V169.611c0-38.334-13.333-71.112-40.555-98.334s-60-40.556-98.334-40.556c-30.555,0-58.333,9.444-83.333,27.778L101.056,30.721H73.278V308.5h55.556V166.277C129.389,144.055,138.278,125.166,154.389,109.611Zm435,120c-16.112,15.555-35,23.333-57.778,23.333s-42.778-8.333-58.89-24.444-24.444-36.111-24.444-58.889V30.721H392.717v138.89c0,38.333,13.334,71.111,40.556,98.333s60,40.556,98.334,40.556c30.555,0,58.333-9.444,83.333-27.778L642.718,308.5H670.5V30.721H614.94V172.944C614.385,195.166,605.5,214.055,589.385,229.611Z"/>
</svg>
